<svg width="2000" height="2000" viewBox="0 0 2000 2000" fill="none" xmlns="http://www.w3.org/2000/svg">
<path fill-rule="evenodd" clip-rule="evenodd" d="M1813.4 731.409C1812.03 732.034 1811.15 733.404 1811.15 734.912V1015.24C1811.15 1018.04 1814.03 1019.9 1816.58 1018.75L1999.33 936.298C1999.61 936.171 1999.93 936.412 1999.87 936.718L1999.77 937.314C1999.75 937.38 1999.82 937.432 1999.88 937.402C1999.94 937.375 2000 937.415 2000 937.476L1996.92 1496.49C1996.91 1497.93 1996.1 1499.25 1994.82 1499.9L1979.86 1507.55C1979.7 1507.63 1979.64 1507.82 1979.72 1507.98C1979.81 1508.13 1979.75 1508.33 1979.59 1508.41L1678.98 1662.92C1676.42 1664.24 1673.37 1662.38 1673.37 1659.5L1673.37 1525.47C1673.37 1524 1674.21 1522.66 1675.53 1522.02L1845.75 1438.76C1847.06 1438.12 1847.89 1436.8 1847.91 1435.34L1850.29 1145.73C1850.31 1142.95 1847.48 1141.07 1844.93 1142.16L1811.26 1156.54C1811.19 1156.57 1811.15 1156.63 1811.15 1156.7C1811.15 1156.78 1811.1 1156.84 1811.04 1156.87L1799.66 1161.49L1674.09 1215.13C1671.55 1216.21 1668.73 1214.35 1668.73 1211.59L1668.73 1085.46C1668.73 1085.46 1668.73 1085.46 1668.73 1085.46C1668.73 1085.46 1668.73 1085.46 1668.73 1085.46V943.401V672.081C1668.73 672.081 1668.73 672.08 1668.73 672.08C1668.74 672.08 1668.74 672.079 1668.74 672.079L1668.74 655.676C1668.74 654.184 1669.6 652.826 1670.95 652.192L1994.31 500.286C1996.87 499.087 1999.8 500.95 1999.8 503.77L1999.8 644.022C1999.8 645.531 1998.92 646.9 1997.55 647.526L1813.4 731.409Z" fill="url(#paint0_linear_26_171)"/>
<path fill-rule="evenodd" clip-rule="evenodd" d="M1635.66 681.441C1636.94 678.153 1633.49 675.015 1630.34 676.604L1474.91 754.945C1474.11 755.347 1473.48 756.012 1473.12 756.827L1387.96 949.527C1386.28 953.335 1380.59 952.134 1380.59 947.971V815.04C1380.59 812.164 1377.55 810.303 1374.99 811.611L1240.27 880.391C1238.98 881.049 1238.17 882.374 1238.17 883.82V1876.98C1238.17 1879.85 1241.21 1881.71 1243.77 1880.41L1378.49 1811.63C1379.78 1810.97 1380.59 1809.64 1380.59 1808.2V1525.01C1380.59 1521.07 1385.81 1519.68 1387.78 1523.1L1513.64 1742.06C1514.66 1743.84 1516.91 1744.51 1518.74 1743.57L1647.84 1677.21C1649.89 1676.16 1650.56 1673.54 1649.27 1671.63L1396.94 1297.76C1396.24 1296.72 1396.09 1295.39 1396.55 1294.21L1635.66 681.441Z" fill="url(#paint1_linear_26_171)"/>
<path fill-rule="evenodd" clip-rule="evenodd" d="M925.691 960.506C925.691 960.338 925.596 960.185 925.447 960.11L788.851 891.661C786.291 890.378 783.276 892.239 783.276 895.103V1889.64C783.276 1891.1 784.099 1892.43 785.401 1893.08L864.889 1932.91L907.021 1954.34L998.829 1999.35C998.946 1999.41 999.022 1999.53 999.027 1999.66C999.038 1999.92 999.312 2000.08 999.542 1999.96L1074 1962.49L1165.85 1915.12C1165.87 1915.11 1165.88 1915.09 1165.88 1915.07C1165.88 1915.05 1165.9 1915.03 1165.92 1915.02L1211.52 1891.74C1212.8 1891.08 1213.62 1889.75 1213.62 1888.31V1700.02C1213.62 1697.23 1210.74 1695.36 1208.19 1696.5L1073.48 1756.77C1072.09 1757.39 1071.2 1758.77 1071.2 1760.29V1814.65C1071.2 1816.13 1070.36 1817.47 1069.03 1818.11L1000.03 1851.57C998.979 1852.08 997.752 1852.08 996.696 1851.58L927.885 1818.8C926.545 1818.16 925.691 1816.81 925.691 1815.32V1104.92C925.691 1102.02 928.782 1100.16 931.346 1101.52L999.72 1137.83C999.841 1137.89 999.987 1137.8 999.985 1137.67C999.99 1137.81 1000.14 1137.9 1000.27 1137.84L1068.83 1106.27C1071.38 1105.1 1074.29 1106.96 1074.29 1109.77V1184.14C1074.29 1187.03 1077.36 1188.89 1079.92 1187.56L1214.63 1117.51C1215.91 1116.84 1216.71 1115.53 1216.71 1114.09V895.103C1216.71 892.239 1213.69 890.378 1211.13 891.661L1110.37 942.156L999.979 995.689C998.911 996.207 997.664 996.203 996.599 995.679L925.938 960.903C925.787 960.828 925.691 960.674 925.691 960.506Z" fill="url(#paint2_linear_26_171)"/>
<path fill-rule="evenodd" clip-rule="evenodd" d="M392.633 697.771C392.633 694.863 395.733 693.005 398.297 694.376L477.241 736.574C477.905 736.929 478.731 736.646 479.037 735.958C479.342 735.274 480.163 734.989 480.826 735.338L617.934 807.434C618.051 807.496 618.191 807.411 618.191 807.279C618.191 807.148 618.329 807.063 618.446 807.121L760.868 878.542C762.17 879.195 762.992 880.527 762.992 881.984V1309.09C762.992 1309.3 763.116 1309.5 763.311 1309.59C763.585 1309.73 763.704 1310.05 763.579 1310.33L763.139 1311.31C763.042 1311.53 762.992 1311.76 762.992 1311.99V1873.83C762.992 1876.69 759.977 1878.55 757.417 1877.27L620.315 1808.52C619.013 1807.86 618.191 1806.53 618.191 1805.08V1384.89C618.191 1383.46 617.397 1382.15 616.128 1381.48L531.932 1337.37C529.368 1336.03 526.295 1337.89 526.295 1340.78V1760.69C526.295 1763.59 523.195 1765.45 520.631 1764.08L394.668 1696.75C393.415 1696.08 392.633 1694.77 392.633 1693.35V697.771ZM612.665 1236.7C615.221 1237.94 618.191 1236.08 618.191 1233.24V947.761C618.191 946.328 617.396 945.014 616.128 944.35L531.931 900.262C529.368 898.919 526.295 900.779 526.295 903.672V1192.5C526.295 1193.98 527.139 1195.32 528.468 1195.96L612.665 1236.7Z" fill="url(#paint3_linear_26_171)"/>
<path fill-rule="evenodd" clip-rule="evenodd" d="M0 501.434C0 498.528 3.09499 496.67 5.65926 498.036L137.191 568.079C138.447 568.748 139.232 570.054 139.232 571.477V995.472C139.232 996.949 140.077 998.296 141.407 998.938L222.812 1038.27C225.369 1039.5 228.337 1037.64 228.337 1034.8V616.905C228.337 614.041 231.353 612.18 233.913 613.464L368.23 680.87C369.532 681.523 370.353 682.854 370.353 684.31V1677.5C370.353 1680.36 367.337 1682.22 364.777 1680.94L230.46 1613.53C229.158 1612.88 228.337 1611.55 228.337 1610.09V1187.67C228.337 1186.24 227.543 1184.93 226.275 1184.26L144.87 1141.57C142.306 1140.23 139.232 1142.09 139.232 1144.98V1567.01C139.232 1569.92 136.112 1571.78 133.547 1570.39L2.01479 1499.07C0.773275 1498.4 0 1497.1 0 1495.69V501.434Z" fill="url(#paint4_linear_26_171)"/>
<path fill-rule="evenodd" clip-rule="evenodd" d="M1012.38 3.85501C1012.38 0.959059 1015.46 -0.900031 1018.02 0.447175L1160.81 75.4903C1160.92 75.5456 1160.99 75.6547 1160.99 75.7736C1160.99 75.8951 1161.05 76.0062 1161.16 76.0602L1581.1 284.43C1581.19 284.473 1581.22 284.583 1581.17 284.664C1581.11 284.746 1581.14 284.855 1581.23 284.899L1661.2 324.864C1663.99 326.254 1664.06 330.199 1661.33 331.687L1424.29 460.914C1420.86 462.783 1422.07 467.98 1425.97 468.141L1950.57 489.675C1954.58 489.839 1955.7 495.247 1952.09 496.989L1727.02 605.615C1726.35 605.935 1725.61 606.058 1724.88 605.969L1262.8 549.771C1262 549.674 1261.19 549.828 1260.49 550.212L1162.99 603.364C1161.76 604.039 1160.99 605.335 1160.99 606.744V885.081C1160.99 886.569 1160.13 887.923 1158.78 888.56L1017.88 955.289C1015.32 956.498 1012.38 954.635 1012.38 951.809V3.85501ZM1166.64 450.388C1164.08 451.753 1160.99 449.895 1160.99 446.99V229.634C1160.99 226.789 1163.97 224.927 1166.52 226.174L1379.56 330.089C1382.39 331.468 1382.46 335.469 1379.68 336.947L1166.64 450.388Z" fill="url(#paint5_linear_26_171)"/>
<path fill-rule="evenodd" clip-rule="evenodd" d="M984.508 5.20294C984.508 2.30699 981.431 0.4479 978.867 1.79511L837.96 75.8462C836.694 76.5115 835.901 77.8238 835.901 79.254V442.538C835.901 445.474 832.748 447.329 830.182 445.904L539.123 284.247C537.901 283.568 537.142 282.279 537.142 280.881V229.956C537.142 227.088 534.118 225.227 531.557 226.52L395.294 295.343C393.997 295.997 393.18 297.326 393.18 298.779V375.196C393.18 375.593 393.423 375.95 393.792 376.095L394.544 376.39C394.775 376.481 394.852 376.769 394.698 376.963C394.557 377.141 394.607 377.402 394.805 377.514L833.528 625.591C833.824 625.759 834.189 625.751 834.478 625.571C835.098 625.184 835.901 625.629 835.901 626.36V726.851C835.901 729.741 832.835 731.601 830.272 730.265L182.881 392.827C181.774 392.25 180.457 392.246 179.347 392.814L22.2892 473.251C19.474 474.693 19.5023 478.726 22.3373 480.128L835.516 882.326C835.752 882.443 835.901 882.684 835.901 882.947C835.901 883.212 836.052 883.453 836.289 883.569L978.958 953.782C981.516 955.041 984.508 953.179 984.508 950.328V532C984.508 531.953 984.532 531.91 984.572 531.885L984.581 531.879C984.665 531.827 984.662 531.703 984.575 531.655C984.534 531.632 984.508 531.588 984.508 531.541V5.20294Z" fill="url(#paint6_linear_26_171)"/>
<path fill-rule="evenodd" clip-rule="evenodd" d="M1768.74 731.375C1767.37 731.999 1766.48 733.37 1766.48 734.881V998.107C1766.48 1000.9 1769.36 1002.76 1771.91 1001.62L1944.37 924.18C1944.64 924.06 1944.93 924.288 1944.88 924.576L1944.78 925.136C1944.77 925.199 1944.83 925.248 1944.89 925.219C1944.94 925.194 1945 925.232 1945 925.289L1942.09 1451.04C1942.08 1452.48 1941.27 1453.8 1939.99 1454.45L1925.96 1461.58C1925.81 1461.66 1925.76 1461.84 1925.83 1461.99C1925.91 1462.13 1925.86 1462.31 1925.71 1462.39L1641.85 1607.59C1639.29 1608.9 1636.24 1607.04 1636.24 1604.16L1636.24 1478.59C1636.24 1477.12 1637.08 1475.78 1638.41 1475.13L1799.06 1396.93C1800.38 1396.29 1801.22 1394.97 1801.23 1393.5L1803.48 1121.54C1803.5 1118.77 1800.67 1116.88 1798.12 1117.97L1766.58 1131.37C1766.52 1131.4 1766.48 1131.46 1766.48 1131.53C1766.48 1131.59 1766.44 1131.66 1766.38 1131.68L1755.65 1136.02L1637.21 1186.37C1634.67 1187.45 1631.86 1185.58 1631.86 1182.82L1631.86 1064.51C1631.86 1064.5 1631.86 1064.5 1631.86 1064.5C1631.86 1064.5 1631.86 1064.5 1631.86 1064.5V930.864V675.621C1631.86 675.62 1631.86 675.619 1631.86 675.619C1631.86 675.619 1631.86 675.618 1631.86 675.617L1631.86 660.337C1631.86 658.843 1632.73 657.483 1634.08 656.85L1939.33 514.142C1941.88 512.949 1944.81 514.812 1944.81 517.63L1944.81 649.073C1944.81 650.584 1943.93 651.955 1942.55 652.579L1768.74 731.375Z" fill="white"/>
<path fill-rule="evenodd" clip-rule="evenodd" d="M1600.38 684.971C1601.67 681.685 1598.22 678.542 1595.07 680.124L1448.71 753.54C1447.91 753.94 1447.28 754.604 1446.91 755.419L1366.85 935.72C1365.16 939.521 1359.48 938.317 1359.48 934.158V810.467C1359.48 807.594 1356.45 805.734 1353.89 807.035L1226.97 871.526C1225.67 872.182 1224.86 873.509 1224.86 874.958V1808.76C1224.86 1811.63 1227.89 1813.49 1230.45 1812.19L1357.38 1747.7C1358.67 1747.05 1359.48 1745.72 1359.48 1744.27V1478.81C1359.48 1474.88 1364.7 1473.48 1366.67 1476.89L1485.15 1682.03C1486.18 1683.8 1488.41 1684.46 1490.24 1683.53L1611.87 1621.31C1613.93 1620.25 1614.6 1617.64 1613.31 1615.72L1375.01 1264.33C1374.3 1263.28 1374.15 1261.95 1374.61 1260.77L1600.38 684.971Z" fill="white"/>
<path fill-rule="evenodd" clip-rule="evenodd" d="M929.471 946.954C929.471 946.797 929.382 946.653 929.241 946.582L800.416 882.338C797.857 881.061 794.849 882.923 794.849 885.783V1820.89C794.849 1822.34 795.674 1823.68 796.98 1824.33L871.913 1861.7L911.821 1881.9L998.608 1924.25C998.719 1924.3 998.791 1924.41 998.796 1924.53C998.806 1924.78 999.063 1924.93 999.28 1924.82L1069.67 1889.57L1156.49 1845.01C1156.51 1845 1156.52 1844.98 1156.52 1844.96C1156.52 1844.94 1156.54 1844.92 1156.55 1844.91L1199.54 1823.07C1200.83 1822.41 1201.64 1821.08 1201.64 1819.63V1642.98C1201.64 1640.2 1198.77 1638.33 1196.23 1639.47L1069.3 1695.98C1067.92 1696.6 1067.02 1697.98 1067.02 1699.5V1750.34C1067.02 1751.82 1066.17 1753.16 1064.84 1753.81L999.829 1785.18C998.78 1785.68 997.558 1785.69 996.506 1785.19L931.672 1754.45C930.328 1753.81 929.471 1752.46 929.471 1750.97V1083.18C929.471 1080.28 932.556 1078.42 935.12 1079.77L999.458 1113.77C999.569 1113.83 999.702 1113.75 999.701 1113.62C999.705 1113.76 999.844 1113.84 999.965 1113.79L1064.49 1084.22C1067.04 1083.05 1069.94 1084.91 1069.94 1087.72V1156.98C1069.94 1159.86 1073 1161.72 1075.56 1160.4L1202.49 1094.71C1203.76 1094.05 1204.57 1092.73 1204.57 1091.29V885.783C1204.57 882.923 1201.56 881.061 1199 882.338L1104.05 929.687L999.781 980.011C998.717 980.525 997.476 980.521 996.414 980.001L929.704 947.328C929.562 947.258 929.471 947.113 929.471 946.954Z" fill="white"/>
<path fill-rule="evenodd" clip-rule="evenodd" d="M425.577 700.154C425.577 697.249 428.671 695.391 431.235 696.755L505.559 736.294C506.186 736.627 506.964 736.36 507.254 735.712C507.543 735.068 508.316 734.8 508.942 735.127L638.552 802.954C638.663 803.011 638.795 802.931 638.795 802.807C638.795 802.684 638.924 802.603 639.035 802.658L773.543 869.787C774.849 870.438 775.674 871.772 775.674 873.231V1274.88C775.674 1275.08 775.79 1275.27 775.974 1275.36C776.233 1275.48 776.346 1275.79 776.227 1276.05L775.812 1276.97C775.721 1277.17 775.674 1277.39 775.674 1277.61V1805.8C775.674 1808.66 772.664 1810.52 770.105 1809.25L640.926 1744.78C639.62 1744.13 638.795 1742.79 638.795 1741.33V1346.34C638.795 1344.9 637.997 1343.59 636.725 1342.93L557.556 1301.64C554.993 1300.31 551.927 1302.17 551.927 1305.06V1699.35C551.927 1702.26 548.833 1704.12 546.269 1702.75L427.619 1639.63C426.362 1638.97 425.577 1637.66 425.577 1636.24V700.154ZM633.275 1206.64C635.831 1207.87 638.795 1206.01 638.795 1203.17V935.108C638.795 933.673 637.997 932.357 636.724 931.694L557.556 890.437C554.993 889.102 551.927 890.961 551.927 893.851V1165.05C551.927 1166.53 552.774 1167.88 554.106 1168.52L633.275 1206.64Z" fill="white"/>
<path fill-rule="evenodd" clip-rule="evenodd" d="M54.4258 515.45C54.4258 512.548 57.5143 510.69 60.0783 512.049L183.993 577.718C185.252 578.386 186.04 579.694 186.04 581.12V979.7C186.04 981.18 186.888 982.529 188.221 983.17L264.752 1019.97C267.307 1021.2 270.27 1019.33 270.27 1016.5V624.07C270.27 621.209 273.28 619.348 275.839 620.626L402.386 683.827C403.691 684.479 404.516 685.812 404.516 687.271V1621.11C404.516 1623.97 401.506 1625.83 398.946 1624.55L272.399 1561.35C271.094 1560.7 270.27 1559.36 270.27 1557.9V1160.8C270.27 1159.37 269.472 1158.06 268.201 1157.39L191.671 1117.45C189.108 1116.11 186.04 1117.97 186.04 1120.86V1517.15C186.04 1520.06 182.927 1521.92 180.362 1520.54L56.4474 1453.67C55.2021 1453 54.4258 1451.7 54.4258 1450.28V515.45Z" fill="white"/>
<path fill-rule="evenodd" clip-rule="evenodd" d="M1011.42 47.3539C1011.42 44.4613 1014.49 42.6019 1017.05 43.9425L1151.73 114.382C1151.83 114.433 1151.89 114.536 1151.89 114.647C1151.89 114.761 1151.96 114.866 1152.06 114.916L1549.03 310.94C1549.11 310.98 1549.14 311.084 1549.08 311.16C1549.03 311.237 1549.06 311.34 1549.14 311.381L1624.34 348.779C1627.14 350.167 1627.21 354.123 1624.47 355.61L1401.52 476.568C1398.09 478.432 1399.3 483.639 1403.2 483.798L1897.37 503.986C1901.38 504.15 1902.5 509.566 1898.88 511.303L1687.01 613.067C1686.35 613.385 1685.61 613.507 1684.88 613.419L1248.19 560.565C1247.4 560.469 1246.6 560.622 1245.9 561.003L1153.91 610.913C1152.66 611.586 1151.89 612.885 1151.89 614.297V875.85C1151.89 877.34 1151.03 878.697 1149.68 879.332L1016.91 941.908C1014.35 943.112 1011.42 941.249 1011.42 938.426V47.3539ZM1157.54 466.904C1154.98 468.262 1151.89 466.404 1151.89 463.502V259.742C1151.89 256.9 1154.87 255.038 1157.42 256.279L1358.1 353.694C1360.94 355.07 1361.01 359.083 1358.22 360.559L1157.54 466.904Z" fill="white"/>
<path fill-rule="evenodd" clip-rule="evenodd" d="M985.067 48.622C985.067 45.7294 981.997 43.8701 979.433 45.2106L846.657 114.653C845.387 115.318 844.591 116.632 844.591 118.065V459.307C844.591 462.239 841.445 464.095 838.879 462.676L564.166 310.831C562.94 310.154 562.178 308.863 562.178 307.462V260.051C562.178 257.186 559.16 255.325 556.6 256.612L428.213 321.144C426.913 321.798 426.092 323.129 426.092 324.584V396.326C426.092 396.701 426.322 397.037 426.671 397.173L427.383 397.451C427.6 397.536 427.673 397.808 427.527 397.99C427.394 398.157 427.442 398.403 427.628 398.508L842.349 631.886C842.629 632.044 842.973 632.036 843.246 631.867C843.833 631.502 844.591 631.924 844.591 632.615V726.782C844.591 729.669 841.532 731.529 838.969 730.2L227.39 412.961C226.287 412.388 224.976 412.384 223.869 412.948L75.9072 488.362C73.0831 489.802 73.1114 493.846 75.9553 495.246L844.228 873.407C844.45 873.517 844.591 873.743 844.591 873.992C844.591 874.24 844.733 874.467 844.956 874.577L979.524 940.484C982.082 941.737 985.067 939.875 985.067 937.027V543.841C985.067 543.797 985.09 543.755 985.128 543.732L985.136 543.727C985.216 543.677 985.213 543.561 985.131 543.515C985.092 543.494 985.067 543.452 985.067 543.408V48.622Z" fill="white"/>
<defs>
<linearGradient id="paint0_linear_26_171" x1="1818.89" y1="499.916" x2="1818.89" y2="1663.35" gradientUnits="userSpaceOnUse">
<stop offset="0.11" stop-color="#90EE80"/>
<stop offset="0.4" stop-color="#1E97E6"/>
<stop offset="0.83" stop-color="#5845B1"/>
</linearGradient>
<linearGradient id="paint1_linear_26_171" x1="1444.05" y1="676.179" x2="1444.05" y2="1880.83" gradientUnits="userSpaceOnUse">
<stop offset="0.11" stop-color="#90EE80"/>
<stop offset="0.4" stop-color="#1E97E6"/>
<stop offset="0.83" stop-color="#5845B1"/>
</linearGradient>
<linearGradient id="paint2_linear_26_171" x1="999.992" y1="891.248" x2="999.992" y2="2000" gradientUnits="userSpaceOnUse">
<stop offset="0.11" stop-color="#90EE80"/>
<stop offset="0.4" stop-color="#1E97E6"/>
<stop offset="0.83" stop-color="#5845B1"/>
</linearGradient>
<linearGradient id="paint3_linear_26_171" x1="578.131" y1="693.916" x2="578.131" y2="1877.68" gradientUnits="userSpaceOnUse">
<stop offset="0.11" stop-color="#90EE80"/>
<stop offset="0.4" stop-color="#1E97E6"/>
<stop offset="0.83" stop-color="#5845B1"/>
</linearGradient>
<linearGradient id="paint4_linear_26_171" x1="185.177" y1="497.578" x2="185.177" y2="1681.35" gradientUnits="userSpaceOnUse">
<stop offset="0.11" stop-color="#90EE80"/>
<stop offset="0.4" stop-color="#1E97E6"/>
<stop offset="0.83" stop-color="#5845B1"/>
</linearGradient>
<linearGradient id="paint5_linear_26_171" x1="1483.32" y1="0" x2="1483.32" y2="955.664" gradientUnits="userSpaceOnUse">
<stop offset="0.11" stop-color="#90EE80"/>
<stop offset="0.4" stop-color="#1E97E6"/>
<stop offset="0.83" stop-color="#5845B1"/>
</linearGradient>
<linearGradient id="paint6_linear_26_171" x1="502.418" y1="1.34793" x2="502.418" y2="954.183" gradientUnits="userSpaceOnUse">
<stop offset="0.11" stop-color="#90EE80"/>
<stop offset="0.4" stop-color="#1E97E6"/>
<stop offset="0.83" stop-color="#5845B1"/>
</linearGradient>
</defs>
</svg>
